<?xml version="1.0" encoding="UTF-8"?>
<!--<svg version="1.1" viewBox="0 0 157 34" xmlns="http://www.w3.org/2000/svg">-->
<svg version="1.1" viewBox="0 0 144 34" xmlns="http://www.w3.org/2000/svg">
	<g fill="none" fill-rule="evenodd">
		<!--<g transform="translate(-20 -20)" fill="#16161d">-->
		<g transform="translate(-20 -20)" fill="#333333">
			<g transform="translate(20 20)">
				<!--<g transform="translate(147)">
					<path
						d="m0.84125 3.1653c0 0.70554 0.5438 0.98135 1.2169 0.98135 0.73855 0 1.0142-0.34642 1.0142-0.69284 0-0.35353-0.20113-0.49474-0.39588-0.56535-0.33682-0.12191-0.7742-0.2047-1.4313-0.37791-0.82103-0.21232-1.0637-0.68776-1.0637-1.1617 0-0.91837 0.8886-1.3486 1.7559-1.3486 1.0003 0 1.8411 0.50744 1.8411 1.4634h-0.84071c-0.039907-0.59023-0.45654-0.80814-1.0355-0.80814-0.3895 0-0.88009 0.13461-0.88009 0.59633 0 0.32102 0.22933 0.50084 0.57041 0.59074 0.075026 0.019302 1.1382 0.28242 1.3861 0.35302 0.6332 0.17981 0.93543 0.69284 0.93543 1.1683 0 1.0266-0.95618 1.4375-1.9108 1.4375-1.0935 0-1.9831-0.50084-2.0033-1.6361h0.84125"/>
					<path d="m4.9682 2.9093e-4h1.1823l1.3249 3.5886h0.01277l1.2903-3.5886h1.1711v4.5832h-0.80081v-3.5363h-0.013302l-1.3292 3.5363h-0.69332l-1.3324-3.5363h-0.01277v3.5363h-0.79974v-4.5832"/>
				</g>-->
				<path d="m28 34h9v-13h6v-8.0137h-6v-4.9863h7v-8h-16v34z"/>
				<path d="m45 34h16v-8h-7v-5h6v-8.0137h-6v-4.9863h7v-8h-16v34z"/>
				<path d="m0 0h8.9717v26h8.0283v8h-17v-34z"/>
				<path d="m18 0h9v34h-9v-34z"/>
				<path d="m128 34h16v-8.0002h-7v-5h6v-8.0135h-6v-4.9865h7v-7.9998h-16v34z"/>
				<path d="m67 8h5v26h9v-26h5v-8h-19v8z"/>
				<path d="m87 0h9v34h-9v-34z"/>
				<path d="m112 17l-2.3438-17h-12.656v34h8v-18.889l3.7188 18.889h6.5625l3.7188-18.888v18.888h8v-34h-12.656l-2.3438 17z"/>
			</g>
		</g>
	</g>
</svg>
